<svg xmlns="http://www.w3.org/2000/svg" viewBox="0 0 800 600" width="800" height="600">
  <defs>
    <linearGradient id="bg" x1="0" y1="0" x2="1" y2="1">
      <stop offset="0" stop-color="#c98a5e" stop-opacity="0.20"/>
      <stop offset="1" stop-color="#e0b183" stop-opacity="0.06"/>
    </linearGradient>
  </defs>
  <rect x="0" y="0" width="800" height="600" fill="#12161c"/>
  <rect x="0" y="44" width="800" height="556" fill="url(#bg)"/>
  
  <rect x="0" y="0" width="800" height="44" fill="#1e2530"/>
  <circle cx="24" cy="22" r="6" fill="#ff5f57"/>
  <circle cx="46" cy="22" r="6" fill="#febc2e"/>
  <circle cx="68" cy="22" r="6" fill="#28c840"/>
  <rect x="100" y="12" width="640" height="20" rx="10" fill="#2a3340"/>

  <rect x="0" y="44" width="800" height="56" rx="0" fill="#171d26" opacity="1"/><text x="40" y="78" font-family="'Hiragino Sans','Noto Sans JP',sans-serif" font-size="18" font-weight="600" fill="#e0b183" text-anchor="start">ひまつど公式</text><text x="760" y="78" font-family="'Hiragino Sans','Noto Sans JP',sans-serif" font-size="13" font-weight="600" fill="#9aa4b2" text-anchor="end">← 記事一覧</text><rect x="40" y="120" width="720" height="210" rx="16" fill="#c98a5e" opacity="0.28"/><text x="60" y="165" font-family="'Hiragino Sans','Noto Sans JP',sans-serif" font-size="24" font-weight="700" fill="#ffffff" text-anchor="start">定期イベント開催のお知らせ</text><text x="60" y="195" font-family="'Hiragino Sans','Noto Sans JP',sans-serif" font-size="13" font-weight="400" fill="#e2e6ec" text-anchor="start">2026.09.11 ・ お知らせ</text><rect x="40" y="360" width="720" height="14" rx="7" fill="#3a4451" opacity="1"/><rect x="40" y="390" width="720" height="14" rx="7" fill="#3a4451" opacity="1"/><rect x="40" y="420" width="720" height="14" rx="7" fill="#3a4451" opacity="1"/><rect x="40" y="450" width="432.0" height="14" rx="7" fill="#3a4451" opacity="1"/><rect x="40" y="490" width="720" height="140" rx="14" fill="#1b222c" opacity="1"/><text x="400.0" y="570" font-family="'Hiragino Sans','Noto Sans JP',sans-serif" font-size="14" font-weight="600" fill="#7d8896" text-anchor="middle">本文中の画像プレースホルダー</text>
</svg>